<svg xmlns="http://www.w3.org/2000/svg" viewBox="0 0 512 512" id="audit">
  <path fill="#f0f0f2" d="M7.5,474.5V37.5a30,30,0,0,1,30-30h307a30,30,0,0,1,30,30V424.55362L293.29518,504.5H37.5A30,30,0,0,1,7.5,474.5Z"></path>
  <path fill="#dadadc" d="M293.5,504.5v-50a30,30,0,0,1,30-30h51Z"></path>
  <path fill="#2370b5" d="M130.48731,421.09988l-55-.08721a8,8,0,0,1-7.98731-8v-14a8,8,0,0,1,8.01269-8l55,.08721a8,8,0,0,1,7.98731,8v14A8,8,0,0,1,130.48731,421.09988Z"></path>
  <path fill="#1067ae" d="M130.5127,391.09985l-55-.08715c-.15894-.00025-.314.01416-.47046.02307l40.47046.06408a8,8,0,0,1,7.9873,8v14a7.99339,7.99339,0,0,1-7.54224,7.97693l14.52954.02307a7.99984,7.99984,0,0,0,8.0127-8v-14A8,8,0,0,0,130.5127,391.09985Z"></path>
  <path fill="#dadadc" d="M138.5,458.59961h-.00879l-71-.08691a7.5,7.5,0,0,1,.00879-15h.00879l71,.08691a7.5,7.5,0,0,1-.00879,15Z"></path>
  <path fill="#fed947" d="M246.48731,421.09988l-55-.08721a8,8,0,0,1-7.98731-8v-14a8,8,0,0,1,8.01269-8l55,.08721a8,8,0,0,1,7.98731,8v14A8,8,0,0,1,246.48731,421.09988Z"></path>
  <path fill="#fed030" d="M246.5127,391.09985l-55-.08715c-.15894-.00025-.314.01416-.47046.02307l40.47046.06408a8,8,0,0,1,7.9873,8v14a7.99339,7.99339,0,0,1-7.54224,7.97693l14.52954.02307a7.99984,7.99984,0,0,0,8.0127-8v-14A8,8,0,0,0,246.5127,391.09985Z"></path>
  <path fill="#dadadc" d="M254.5 458.59961h-.00977l-67.79394-.08691a7.5 7.5 0 0 1 .00976-15h.00977l67.794.08691a7.5 7.5 0 0 1-.00977 15zM224.5 60.11279h-.00879l-97-.11279A7.5 7.5 0 0 1 127.5 45h.00879l97 .11279a7.5 7.5 0 0 1-.00879 15zM224.5 120.11279h-.00488l-172-.11279A7.5 7.5 0 0 1 52.5 105h.00488l172 .11279a7.5 7.5 0 0 1-.00488 15zM224.5 150.11279h-.00488l-172-.11279a7.5 7.5 0 0 1 .00976-15l172 .11279a7.5 7.5 0 0 1-.00488 15zM224.5 180.11279h-.00488l-172-.11279a7.5 7.5 0 0 1 .00976-15l172 .11279a7.5 7.5 0 0 1-.00488 15z"></path>
  <path fill="#fed947" d="M93.5,282.11258h15a15,15,0,0,1,15,15v64a0,0,0,0,1,0,0h-45a0,0,0,0,1,0,0v-64A15,15,0,0,1,93.5,282.11258Z"></path>
  <path fill="#fed030" d="M108.5,282.11255h-15a15.00012,15.00012,0,0,1,15,15v64h15v-64A15.00012,15.00012,0,0,0,108.5,282.11255Z"></path>
  <path fill="#2370b5" d="M183.5,252.11258h15a15,15,0,0,1,15,15v94a0,0,0,0,1,0,0h-45a0,0,0,0,1,0,0v-94A15,15,0,0,1,183.5,252.11258Z"></path>
  <path fill="#1067ae" d="M198.5,252.11255h-15a15.00012,15.00012,0,0,1,15,15v94h15v-94A15.00012,15.00012,0,0,0,198.5,252.11255Z"></path>
  <path fill="#fed947" d="M273.5,207.11258h15a15,15,0,0,1,15,15v139a0,0,0,0,1,0,0h-45a0,0,0,0,1,0,0v-139A15,15,0,0,1,273.5,207.11258Z"></path>
  <path fill="#fed030" d="M288.5,207.11255h-15a15.00012,15.00012,0,0,1,15,15v139h15v-139A15.00012,15.00012,0,0,0,288.5,207.11255Z"></path>
  <path fill="#dadadc" d="M334,368.61719h-.00293l-283.5-.125a7.5,7.5,0,0,1,.00293-15h.00293l283.5.125a7.5,7.5,0,0,1-.00293,15Z"></path>
  <rect width="36.472" height="85.485" x="366.631" y="207.744" fill="#8b8893" transform="rotate(-45 384.867 250.486)"></rect>
  <path fill="#787681" d="M367.53857,207.36768l-9.57666,9.57666,36.36486,36.36485a12.84412,12.84412,0,0,1,0,18.16433l-7.13121,7.13122,15,15,25.79-25.79Z"></path>
  <path fill="#b28b6a" d="M451.35569,253.14805h.00006a27.35431,27.35431,0,0,1,27.35431,27.35431v72.945a27.35432,27.35432,0,0,1-27.35432,27.35432h-.00005a27.35432,27.35432,0,0,1-27.35432-27.35432v-72.945a27.35432,27.35432,0,0,1,27.35432-27.35432Z" transform="rotate(-45 451.356 316.975)"></path>
  <path fill="#a17855" d="M496.488,323.42236,444.9082,271.84253a27.36249,27.36249,0,0,0-34.34228-3.53735,27.48341,27.48341,0,0,1,4.34228,3.53735L466.488,323.42236a27.35413,27.35413,0,0,1,0,38.68482h0a27.45681,27.45681,0,0,1-4.34253,3.53735,27.363,27.363,0,0,0,34.34253-3.53735h0A27.35413,27.35413,0,0,0,496.488,323.42236Z"></path>
  <circle cx="302.634" cy="169.113" r="112.457" fill="#8b8893"></circle>
  <path fill="#787681" d="M382.15283,89.59375a112.2291,112.2291,0,0,0-90.33594-32.41919,112.4598,112.4598,0,0,1,0,223.876A112.459,112.459,0,0,0,382.15283,89.59375Z"></path>
  <path fill="#52bbe9" d="M356.35986,222.84a75.98567,75.98567,0,1,1,0-107.46A75.48885,75.48885,0,0,1,356.35986,222.84Z"></path>
  <path fill="#1cabe1" d="M356.35986,115.38a75.96811,75.96811,0,0,0-68.72632-20.722,75.94353,75.94353,0,0,1-.01049,148.91724,76.55729,76.55729,0,0,0,29.697.06481,75.95583,75.95583,0,0,0,39.03979-128.26Z"></path>
  <path fill="#fed947" d="M317.32007,180.14v63.5A76.08962,76.08962,0,0,1,260,232.01V180.14a15.00544,15.00544,0,0,1,15-15h27.32007A15.00544,15.00544,0,0,1,317.32007,180.14Z"></path>
  <path fill="#fed030" d="M302.32007,165.14H278.9646a15.00544,15.00544,0,0,1,15,15v63.5c-1.00439.19666-2.01392.35975-3.02441.51551a76.56193,76.56193,0,0,0,26.37988-.51551v-63.5A15.00544,15.00544,0,0,0,302.32007,165.14Z"></path>
  <path fill="#fff" d="M322,135.21a7.5005,7.5005,0,0,1-7.5,7.49h-.01l-83.06006-.11A75.16832,75.16832,0,0,1,238.99,127.58l75.52.12A7.4901,7.4901,0,0,1,322,135.21Z"></path>
</svg>
