<svg xmlns="http://www.w3.org/2000/svg" viewBox="0 0 68 68" id="crane">
  <path d="M65 17H8a1 1 0 0 1-.4-1.92l30-13a1 1 0 0 1 .83 0l27 13A1 1 0 0 1 65 17zm-52.18-2h47.8L38 4.1zM47 66H29a1 1 0 0 1 0-2h18a1 1 0 0 1 0 2z"></path>
  <path fill="#e1e6e9" d="M35 3h6v62h-6z"></path>
  <path d="M41 66h-6a1 1 0 0 1-1-1V3a1 1 0 0 1 1-1h6a1 1 0 0 1 1 1v62a1 1 0 0 1-1 1zm-5-2h4V4h-4z"></path>
  <path fill="#f6c358" d="M3 16h62v6H3z"></path>
  <path d="M65 23H3a1 1 0 0 1-1-1v-6a1 1 0 0 1 1-1h62a1 1 0 0 1 1 1v6a1 1 0 0 1-1 1zM4 21h60v-4H4z"></path>
  <path fill="#64798a" d="M32 14h12v10H32z"></path>
  <path d="M44 25H32a1 1 0 0 1-1-1V14a1 1 0 0 1 1-1h12a1 1 0 0 1 1 1v10a1 1 0 0 1-1 1zm-11-2h10v-8H33z"></path>
  <path fill="#fcd462" d="M53 12.38h12v13.25H53z"></path>
  <path d="M65 26.63H53a1 1 0 0 1-1-1V12.38a1 1 0 0 1 1-1h12a1 1 0 0 1 1 1v13.25a1 1 0 0 1-1 1zm-11-2h10V13.38H54zM7 34a1 1 0 0 1-1-1V22a1 1 0 0 1 2 0v11a1 1 0 0 1-1 1z"></path>
  <path fill="#72bede" d="M10 33H4l.88 6h4.25l.87-6z"></path>
  <path d="M9.12 40H4.87a1 1 0 0 1-1-.86l-.87-6A1 1 0 0 1 4 32h6a1 1 0 0 1 1 1.14l-.87 6a1 1 0 0 1-1.01.86zm-3.38-2h2.52l.58-4H5.16z"></path>
  <path d="M7 49.69a3.58 3.58 0 0 1-1-7V39a1 1 0 0 1 2 0v4.52a1 1 0 0 1-1 1 1.58 1.58 0 1 0 1.58 1.58 1 1 0 0 1 2 0A3.59 3.59 0 0 1 7 49.69z"></path>
</svg>
