<svg xmlns="http://www.w3.org/2000/svg" width="512" height="512" viewBox="0 0 512 512" id="first-aid-kit">
  <path fill="#fac850" d="M104,68v52h32V80H376v40h32V68a20,20,0,0,0-20-20H124A20,20,0,0,0,104,68Z"></path>
  <path fill="#d63924" d="M152 144l-8 8H96l-8-8V122a10 10 0 0 1 10-10h44a10 10 0 0 1 10 10zM424 144l-8 8H368l-8-8V122a10 10 0 0 1 10-10h44a10 10 0 0 1 10 10z"></path>
  <rect width="464" height="312" x="24" y="144" fill="#fa5d3f" rx="20" ry="20"></rect>
  <path fill="#fac850" d="M458 382h-2V144h12a20 20 0 0 1 20 20V352A30 30 0 0 1 458 382zM54 384h2V144H44a20 20 0 0 0-20 20V354A30 30 0 0 0 54 384z"></path>
  <polygon fill="#fac850" points="328 232 288 232 288 192 224 192 224 232 184 232 184 296 224 296 224 336 288 336 288 296 328 296 328 232"></polygon>
  <rect width="400" height="16" x="56" y="368" fill="#d63924"></rect>
  <rect width="80" height="48" x="216" y="368" fill="#fac850" rx="10" ry="10"></rect>
  <rect width="32" height="16" x="240" y="384" fill="#fff9f8"></rect>
</svg>
