<svg xmlns="http://www.w3.org/2000/svg" width="100" height="100" id="human-resources">
  <path fill="#B3CCFF" d="m34.671 54.558-2.158 12.264 3.572.821 2.985-10.838a26.213 26.213 0 0 1-4.399-2.247zm23.37 2.358 2.938 10.728 3.568-.821-2.113-12.067a26.185 26.185 0 0 1-4.393 2.16zm-7.822 1.688a26.105 26.105 0 0 1-9.516-1.217l-1.848 36.436h5.054l4.633-29.004 4.633 29.004h5.054l-1.844-36.337a26.097 26.097 0 0 1-6.166 1.118zM22.542 33.897a25.651 25.651 0 0 1-.036-1.172h-6.518c-2.938 0-5.39 2.095-5.912 4.852l-3.9 22.162 3.052.701 4.292-15.576-1.925 37.943h4.317L19.87 58.03l3.958 24.777h4.317l-1.87-36.84a26.126 26.126 0 0 1-3.733-12.07zm4.187 12.795 3.766 13.748 3.049-.701-1.2-6.849a26.407 26.407 0 0 1-5.615-6.198zm-2.847-22.659c.09-.681.168-1.354.197-1.812.141-2.212-1.798-4.014-4.014-4.014-2.219 0-4.155 1.802-4.014 4.014.061.953.289 2.854.485 3.788.416 1.987 1.58 3.527 3.528 3.527 1.25 0 2.219-.685 2.836-1.667.233-1.313.561-2.594.982-3.836zM69.82 51.068l1.441-5.233a26.302 26.302 0 0 1-2.822 3.854l1.381 1.379zm-2.001 6.408a2.568 2.568 0 0 1 .126-3.49l.416-.417-1.886-1.885c-.343.315-.678.639-1.037.937l-1.253 7.118 3.053.701.759-2.756-.178-.208zM70.718 60.864l-1.114 21.943h4.318l2.449-15.333zM85.605 76.973a2.424 2.424 0 0 1-1.824-.835l-3.7-4.326 1.757 10.996h4.318l-.297-5.859c-.085.008-.168.024-.254.024zm.295-42.581a14.294 14.294 0 0 1-8.035 2.457c-1.111 0-2.189-.139-3.229-.378a26.045 26.045 0 0 1-3.135 8.942l-.271 5.335c.946-.719 2.374-.698 3.262.093l10.506 9.17-.771-15.188 4.275 15.616 3.049-.701-3.883-22.18c-.237-1.238-.881-2.328-1.768-3.166z"></path>
  <path fill="#FFF" d="M63.504 22.485c0-2.441.613-4.737 1.688-6.75l-.002.003c-4.239-4.186-10.052-6.762-16.435-6.762-.447 0-.896.013-1.348.039-12.899.732-22.801 11.823-22.07 24.724.729 12.844 11.76 22.82 24.724 22.07 11.376-.646 20.415-9.35 21.891-20.245h.002c-4.98-2.255-8.45-7.257-8.45-13.079zM90.844 68.829 72.807 53.085l-2.727 2.727 15.551 18.179z"></path>
  <path fill="#494949" d="M92.999 66.994 74.493 50.841c-.965-.86-2.574-.821-3.503.101l-.648.649-1.896-1.896a26.222 26.222 0 0 0 6.2-13.222 14.173 14.173 0 0 1-2.695-.91C70.475 46.458 61.436 55.162 50.06 55.808c-12.964.75-23.994-9.226-24.724-22.07-.73-12.901 9.171-23.992 22.07-24.724.452-.026.9-.039 1.348-.039 6.383 0 12.195 2.576 16.435 6.762.448-.84.975-1.632 1.574-2.362-5.052-4.786-11.985-7.58-19.515-7.157-14.441.82-25.525 13.236-24.707 27.679.787 13.878 12.283 24.75 26.171 24.75a26.106 26.106 0 0 0 17.78-6.945l1.868 1.868-.416.417a2.568 2.568 0 0 0-.126 3.49L83.78 76.138a2.412 2.412 0 0 0 3.532.128l5.791-5.735c.474-.471.735-1.12.719-1.78a2.442 2.442 0 0 0-.823-1.757zm-7.368 6.997L70.08 55.812l2.727-2.727 18.037 15.744-5.213 5.162z"></path>
  <path fill="#4080FF" d="M57.559 25.472c.32-5.001-4.062-9.075-9.073-9.075-5.013 0-9.393 4.074-9.072 9.075.137 2.154.654 6.449 1.097 8.563.941 4.493 3.573 7.976 7.976 7.976 4.408 0 7.294-3.749 7.976-7.976.34-2.13.959-6.409 1.096-8.563zm8.636 22.549c-3.357-1.456-7.827-2.493-12.865-2.898l-2.544 3.841 2.067 6.511a23.373 23.373 0 0 0 13.342-7.454zm-22.014-2.924c-5.071.379-9.576 1.4-12.982 2.842 3.448 3.892 8.157 6.62 13.454 7.551l2.074-6.525-2.546-3.868z"></path>
  <circle cx="77.866" cy="22.485" r="14.362" fill="#4080FF"></circle>
  <path fill="#FFF" d="m77.687 30.506-7.342-6.035 2.541-3.09 3.896 3.203 6.36-9.713 3.345 2.191z"></path>
</svg>
