<svg xmlns="http://www.w3.org/2000/svg" xml:space="preserve" viewBox="0 0 512 512" id="risk-management">
  <path fill="#ffe177" fill-rule="evenodd" d="m360.323 91.222 47.356-34.286 47.408 47.407-34.287 47.355a193.884 193.884 0 0 1 25.506 61.542l57.715 9.238v67.045l-57.715 9.238a193.874 193.874 0 0 1-25.506 61.542l34.287 47.356-47.408 47.408-47.356-34.287a193.884 193.884 0 0 1-61.542 25.506l-9.238 57.715h-67.045l-9.238-57.715a193.874 193.874 0 0 1-61.542-25.506l-47.356 34.287-47.408-47.407 34.286-47.356a193.884 193.884 0 0 1-25.506-61.542L8.02 289.524v-67.045l57.715-9.238a193.874 193.874 0 0 1 25.506-61.542l-34.286-47.355 47.407-47.407 47.356 34.286a193.884 193.884 0 0 1 61.542-25.506l9.238-57.714h67.045l9.238 57.714a193.868 193.868 0 0 1 61.542 25.505z" clip-rule="evenodd"></path>
  <path fill="#ffd064" fill-rule="evenodd" d="M269.542 8.001h20.001l9.238 57.714a193.93 193.93 0 0 1 61.542 25.506l-10.422 7.875c-20.846-17.137-44.773-27.482-71.122-33.381l-9.237-57.714zm0 496h20.001l9.238-57.715a193.93 193.93 0 0 0 61.542-25.506l-10.422-7.875c-20.846 17.137-44.773 27.482-71.122 33.381l-9.237 57.715zM396.078 65.335l11.601-8.399 47.408 47.407-34.287 47.355a193.884 193.884 0 0 1 25.506 61.542l57.715 9.238v67.045l-57.715 9.238a193.874 193.874 0 0 1-25.506 61.542l34.287 47.356-47.408 47.408-11.601-8.4 39.008-39.008-34.287-47.356a193.893 193.893 0 0 0 25.506-61.542l57.715-9.238v-67.045l-57.715-9.238a193.865 193.865 0 0 0-25.506-61.542l34.287-47.356-39.008-39.007z" clip-rule="evenodd"></path>
  <circle cx="256.02" cy="256.001" r="137.5" fill="#eceff1" fill-rule="evenodd" clip-rule="evenodd" transform="rotate(-45.001 256.018 256.005)"></circle>
  <path fill="#d1d1d6" fill-rule="evenodd" d="M259.963 118.502c3.588 0 7.144.138 10.663.408-70.956 5.443-126.837 64.741-126.837 137.092 0 72.351 55.881 131.649 126.837 137.092-3.519.27-7.075.408-10.663.408-75.939 0-137.5-61.56-137.5-137.5 0-75.939 61.561-137.5 137.5-137.5z" clip-rule="evenodd"></path>
  <g fill-rule="evenodd" clip-rule="evenodd">
    <path fill="#fe646f" d="M256.02 315.591c9.665 0 17.5 7.835 17.5 17.5s-7.835 17.5-17.5 17.5-17.5-7.835-17.5-17.5c0-9.664 7.835-17.5 17.5-17.5zm.001-31.238c-7.351 0-13.387-5.821-13.652-13.167l-3.453-95.621c-.139-3.846 1.148-7.207 3.819-9.977 2.671-2.77 5.983-4.177 9.832-4.177h6.906c3.849 0 7.16 1.407 9.832 4.177 2.672 2.77 3.958 6.131 3.819 9.977l-3.453 95.621c-.265 7.345-6.3 13.167-13.65 13.167z"></path>
    <path fill="#fd4755" d="M256.02 315.591c9.665 0 17.5 7.835 17.5 17.5s-7.835 17.5-17.5 17.5c-1.738 0-3.416-.254-5-.726 7.228-2.151 12.5-8.846 12.5-16.774 0-7.927-5.272-14.622-12.5-16.774a17.517 17.517 0 0 1 5-.726zm.001-31.238c-1.763 0-3.45-.336-5-.946 4.913-1.935 8.449-6.637 8.651-12.221l3.453-95.621c.139-3.846-1.147-7.207-3.819-9.977-2.306-2.391-5.09-3.767-8.285-4.098a15.099 15.099 0 0 1 1.547-.079h6.906c3.849 0 7.16 1.407 9.832 4.177 2.672 2.77 3.958 6.131 3.819 9.977l-3.453 95.621c-.266 7.345-6.301 13.167-13.651 13.167z"></path>
  </g>
  <path fill-rule="evenodd" d="M248.491 171.143c1.175-1.212 2.392-1.731 4.076-1.731h6.907c1.684 0 2.902.519 4.072 1.731 1.175 1.212 1.646 2.449 1.585 4.133l-3.453 95.62a5.64 5.64 0 0 1-5.656 5.458 5.64 5.64 0 0 1-5.657-5.458l-3.453-95.62c-.063-1.685.409-2.921 1.579-4.133zm7.529 121.209a21.582 21.582 0 0 0 21.645-20.876l3.453-95.625c.217-6.015-1.878-11.483-6.058-15.819-4.175-4.331-9.568-6.619-15.588-6.619h-6.907c-6.02 0-11.413 2.288-15.592 6.619-4.175 4.336-6.27 9.804-6.053 15.824l3.453 95.62a21.583 21.583 0 0 0 21.647 20.876zm0 50.24c-5.237 0-9.502-4.26-9.502-9.502 0-5.237 4.265-9.497 9.502-9.497 5.237 0 9.501 4.26 9.501 9.497.001 5.242-4.264 9.502-9.501 9.502zm0-35.001c-14.059 0-25.5 11.441-25.5 25.5 0 14.064 11.441 25.504 25.5 25.504s25.5-11.441 25.5-25.504c0-14.06-11.441-25.5-25.5-25.5zm0 82.41c73.89 0 133.999-60.109 133.999-133.999 0-73.885-60.109-133.999-133.999-133.999-73.89 0-134 60.114-134 133.999.001 73.89 60.11 133.999 134 133.999zm0-284.002c-82.712 0-150.002 67.294-150.002 150.002s67.29 149.998 150.002 149.998c82.707 0 150.002-67.29 150.002-149.998S338.728 105.999 256.02 105.999zm239.999 176.705v-53.405l-50.98-8.157a8.001 8.001 0 0 1-6.539-6.152 185.448 185.448 0 0 0-24.457-59.005 8.013 8.013 0 0 1 .278-8.978l30.288-41.828-37.766-37.761-41.833 30.283a7.995 7.995 0 0 1-8.968.278 185.522 185.522 0 0 0-59.01-24.457 8.013 8.013 0 0 1-6.152-6.539l-8.157-50.98h-53.406l-8.157 50.98a8.008 8.008 0 0 1-6.152 6.539 185.496 185.496 0 0 0-59.005 24.457 8.004 8.004 0 0 1-8.978-.278l-41.828-30.283-37.761 37.761 30.284 41.828a8.005 8.005 0 0 1 .278 8.973c-11.535 18.192-19.768 38.044-24.457 59.005a8 8 0 0 1-6.539 6.157l-50.98 8.157v53.405l50.98 8.157a8 8 0 0 1 6.539 6.152 185.599 185.599 0 0 0 24.452 59.005 8.004 8.004 0 0 1-.273 8.978l-30.284 41.828 37.761 37.761 41.828-30.283a8.011 8.011 0 0 1 8.978-.278c18.187 11.535 38.04 19.768 59.001 24.457a8 8 0 0 1 6.157 6.539l8.157 50.98h53.406l8.157-50.98a8.007 8.007 0 0 1 6.152-6.539 185.522 185.522 0 0 0 59.01-24.457 7.997 7.997 0 0 1 8.968.278l41.833 30.283 37.766-37.761-30.288-41.828a8.011 8.011 0 0 1-.278-8.978c11.535-18.187 19.768-38.04 24.457-59.001a8 8 0 0 1 6.539-6.157l50.979-8.156zm9.261-68.125-52.429-8.393a201.71 201.71 0 0 0-22.428-54.127l31.147-43.026a7.996 7.996 0 0 0-.83-10.346l-47.4-47.409a8.001 8.001 0 0 0-10.351-.821l-43.031 31.152a201.288 201.288 0 0 0-54.127-22.439l-8.393-52.433A7.995 7.995 0 0 0 289.54 0h-67.044a8 8 0 0 0-7.898 6.737l-8.393 52.433a201.24 201.24 0 0 0-54.127 22.438l-43.026-31.152a7.994 7.994 0 0 0-10.346.821l-47.409 47.41a7.994 7.994 0 0 0-.821 10.346l31.151 43.026a201.236 201.236 0 0 0-22.438 54.127l-52.434 8.393a8 8 0 0 0-6.737 7.902v67.04a8 8 0 0 0 6.737 7.902l52.434 8.393a201.306 201.306 0 0 0 22.438 54.127L50.476 402.97a7.994 7.994 0 0 0 .821 10.346l47.409 47.409a8 8 0 0 0 10.346.821l43.026-31.152a201.249 201.249 0 0 0 54.127 22.438l8.393 52.434a8 8 0 0 0 7.898 6.737h67.044c3.93 0 7.28-2.854 7.898-6.737l8.393-52.434a201.253 201.253 0 0 0 54.127-22.438l43.031 31.152a8.001 8.001 0 0 0 10.351-.821l47.4-47.409a7.995 7.995 0 0 0 .83-10.346l-31.147-43.026a201.642 201.642 0 0 0 22.428-54.127l52.429-8.393a8.01 8.01 0 0 0 6.742-7.902v-67.04a8.01 8.01 0 0 0-6.742-7.903z" clip-rule="evenodd"></path>
</svg>
