<svg xmlns="http://www.w3.org/2000/svg" viewBox="0 0 32 32" id="safety-helmet">
  <path fill="#ffdd56" d="M16,7.5h0A13.5,13.5,0,0,1,29.5,21v.5a0,0,0,0,1,0,0H2.5a0,0,0,0,1,0,0V21A13.5,13.5,0,0,1,16,7.5Z"></path>
  <rect width="31" height="3" x=".5" y="21.5" fill="#ffdd56" rx="1.5" ry="1.5"></rect>
  <path d="M30,21H2a2,2,0,0,0,0,4H30a2,2,0,0,0,0-4Zm0,3H2a1,1,0,0,1,0-2H30a1,1,0,0,1,0,2Z"></path>
  <path d="M19.21,7.37c-.33-.08-.67-.14-1.02-.2l.07,1.03c.34.06.69.13,1.02.22ZM24,9.52a10.564,10.564,0,0,0-1-.64v1.17c.34.22.68.46,1,.71A12.978,12.978,0,0,1,29,21H3A12.978,12.978,0,0,1,8,10.76c.32-.25.66-.49,1-.71V8.88a10.564,10.564,0,0,0-1,.64A13.993,13.993,0,0,0,2,21v.5a.5.5,0,0,0,.5.5h27a.5.5,0,0,0,.5-.5V21A13.993,13.993,0,0,0,24,9.52Zm-4.72-1.1-.07-1.05c-.33-.08-.67-.14-1.02-.2l.07,1.03C18.6,8.26,18.95,8.33,19.28,8.42ZM13.81,7.17c-.35.06-.69.12-1.02.2l-.07,1.05c.33-.09.68-.16,1.02-.22Zm-1.02.2-.07,1.05c.33-.09.68-.16,1.02-.22l.07-1.03C13.46,7.23,13.12,7.29,12.79,7.37Zm6.42,0c-.33-.08-.67-.14-1.02-.2l.07,1.03c.34.06.69.13,1.02.22Z"></path>
  <path fill="#ffdd56" d="M8.5,13.5v-5a2,2,0,0,1,2-2h11a2,2,0,0,1,2,2v5"></path>
  <path d="M14.16 6a2.247 2.247 0 0 0-.34 1H10.5A1.5 1.5 0 0 0 9 8.5v5a.5.5 0 0 1-1 0v-5A2.5 2.5 0 0 1 10.5 6zM24 8.5v5a.5.5 0 0 1-1 0v-5A1.5 1.5 0 0 0 21.5 7H18.18a2.247 2.247 0 0 0-.34-1H21.5A2.5 2.5 0 0 1 24 8.5z"></path>
  <path fill="#ffdd56" d="M12.5,18.5l.822-11.506A2.685,2.685,0,0,1,16,4.5h0a2.685,2.685,0,0,1,2.678,2.494L19.5,18.5"></path>
  <path d="M20,18.46a.5.5,0,0,1-.46.54H19.5a.5.5,0,0,1-.5-.46L18.26,8.2l-.07-1.03-.01-.14V7a2.247,2.247,0,0,0-.34-1,2.193,2.193,0,0,0-3.68,0,2.247,2.247,0,0,0-.34,1v.03l-.01.14L13.74,8.2,13,18.54a.5.5,0,0,1-.54.46.5.5,0,0,1-.46-.54l.72-10.04.07-1.05L12.82,7V6.96A2.815,2.815,0,0,1,13.05,6a3.176,3.176,0,0,1,5.9,0,2.815,2.815,0,0,1,.23.96V7l.03.37.07,1.05Z"></path>
</svg>
